<svg width="20" height="20" viewBox="0 0 20 20" fill="none" xmlns="http://www.w3.org/2000/svg">
<path fill-rule="evenodd" clip-rule="evenodd" d="M10 14.1666C9.57836 14.1666 9.17502 13.9725 8.89502 13.6316L5.38419 9.38329C4.96419 8.87413 4.88002 8.15163 5.16836 7.54079C5.42252 7.00163 5.92836 6.66663 6.48919 6.66663H13.5109C14.0717 6.66663 14.5775 7.00163 14.8317 7.54079C15.12 8.15163 15.0359 8.87413 14.6167 9.38246L11.105 13.6316C10.825 13.9725 10.4217 14.1666 10 14.1666Z" fill="#231F20"/>
<mask id="mask0" mask-type="alpha" maskUnits="userSpaceOnUse" x="4" y="6" width="12" height="9">
<path fill-rule="evenodd" clip-rule="evenodd" d="M10 14.1666C9.57836 14.1666 9.17502 13.9725 8.89502 13.6316L5.38419 9.38329C4.96419 8.87413 4.88002 8.15163 5.16836 7.54079C5.42252 7.00163 5.92836 6.66663 6.48919 6.66663H13.5109C14.0717 6.66663 14.5775 7.00163 14.8317 7.54079C15.12 8.15163 15.0359 8.87413 14.6167 9.38246L11.105 13.6316C10.825 13.9725 10.4217 14.1666 10 14.1666Z" fill="white"/>
</mask>
<g mask="url(#mask0)">
<rect width="20" height="20" fill="white"/>
</g>
</svg>
