<svg width="20" height="20" viewBox="0 0 20 20" fill="none" xmlns="http://www.w3.org/2000/svg">
<path d="M17.5 5.95829C17.2468 5.84429 16.9657 5.80721 16.6916 5.85166C16.4175 5.8961 16.1625 6.02012 15.9583 6.20829L14.1667 7.87496V6.66663C14.1667 6.00358 13.9033 5.3677 13.4344 4.89886C12.9656 4.43002 12.3297 4.16663 11.6667 4.16663H4.16667C3.50363 4.16663 2.86775 4.43002 2.3989 4.89886C1.93006 5.3677 1.66667 6.00358 1.66667 6.66663V13.3333C1.66667 13.9963 1.93006 14.6322 2.3989 15.1011C2.86775 15.5699 3.50363 15.8333 4.16667 15.8333H11.6667C12.3297 15.8333 12.9656 15.5699 13.4344 15.1011C13.9033 14.6322 14.1667 13.9963 14.1667 13.3333V12.125L15.9667 13.7916C16.2317 14.0315 16.5759 14.165 16.9333 14.1666C17.1317 14.1662 17.3277 14.1236 17.5083 14.0416C17.7541 13.9422 17.9647 13.7718 18.1131 13.5521C18.2616 13.3324 18.3411 13.0734 18.3417 12.8083V7.19163C18.3405 6.92553 18.2597 6.66589 18.1097 6.44609C17.9597 6.2263 17.7474 6.05641 17.5 5.95829ZM12.5 13.3333C12.5 13.5543 12.4122 13.7663 12.2559 13.9226C12.0996 14.0788 11.8877 14.1666 11.6667 14.1666H4.16667C3.94566 14.1666 3.7337 14.0788 3.57742 13.9226C3.42114 13.7663 3.33334 13.5543 3.33334 13.3333V6.66663C3.33334 6.44561 3.42114 6.23365 3.57742 6.07737C3.7337 5.92109 3.94566 5.83329 4.16667 5.83329H11.6667C11.8877 5.83329 12.0996 5.92109 12.2559 6.07737C12.4122 6.23365 12.5 6.44561 12.5 6.66663V13.3333ZM16.6667 12.1666L14.325 9.99996L16.6667 7.83329V12.1666Z" fill="#212529"/>
</svg>
