<svg width="22" height="22" viewBox="0 0 22 22" fill="none" xmlns="http://www.w3.org/2000/svg">
<path fill-rule="evenodd" clip-rule="evenodd" d="M9.04127 16.4999C8.78827 16.4999 8.54627 16.3954 8.37302 16.2111L3.91527 11.4637C3.56785 11.0952 3.5871 10.515 3.9556 10.1685C4.32502 9.82196 4.90527 9.8403 5.25085 10.2088L9.0321 14.2339L16.7394 5.79871C17.0823 5.4238 17.6616 5.39905 18.0356 5.74005C18.4087 6.08105 18.4344 6.6613 18.0934 7.03438L9.71777 16.201C9.54635 16.3899 9.30252 16.498 9.04769 16.4999H9.04127Z" fill="#231F20"/>
<mask id="mask0" mask-type="alpha" maskUnits="userSpaceOnUse" x="3" y="5" width="16" height="12">
<path fill-rule="evenodd" clip-rule="evenodd" d="M9.04127 16.4999C8.78827 16.4999 8.54627 16.3954 8.37302 16.2111L3.91527 11.4637C3.56785 11.0952 3.5871 10.515 3.9556 10.1685C4.32502 9.82196 4.90527 9.8403 5.25085 10.2088L9.0321 14.2339L16.7394 5.79871C17.0823 5.4238 17.6616 5.39905 18.0356 5.74005C18.4087 6.08105 18.4344 6.6613 18.0934 7.03438L9.71777 16.201C9.54635 16.3899 9.30252 16.498 9.04769 16.4999H9.04127Z" fill="white"/>
</mask>
<g mask="url(#mask0)">
<rect width="22" height="22" fill="white"/>
</g>
</svg>
