<svg width="26" height="26" viewBox="0 0 32 32" fill="none" xmlns="http://www.w3.org/2000/svg">
<path fill-rule="evenodd" clip-rule="evenodd" d="M17.8854 16.0001L23.6094 10.2761C24.1308 9.75476 24.1308 8.91209 23.6094 8.39076C23.0881 7.86942 22.2454 7.86942 21.7241 8.39076L16.0001 14.1148L10.2761 8.39076C9.75476 7.86942 8.91209 7.86942 8.39076 8.39076C7.86942 8.91209 7.86942 9.75476 8.39076 10.2761L14.1148 16.0001L8.39076 21.7241C7.86942 22.2454 7.86942 23.0881 8.39076 23.6094C8.65076 23.8694 8.99209 24.0001 9.33342 24.0001C9.67476 24.0001 10.0161 23.8694 10.2761 23.6094L16.0001 17.8854L21.7241 23.6094C21.9841 23.8694 22.3254 24.0001 22.6668 24.0001C23.0081 24.0001 23.3494 23.8694 23.6094 23.6094C24.1308 23.0881 24.1308 22.2454 23.6094 21.7241L17.8854 16.0001Z" fill="#231F20"/>
<mask id="mask0" mask-type="alpha" maskUnits="userSpaceOnUse" x="7" y="7" width="18" height="17">
<path fill-rule="evenodd" clip-rule="evenodd" d="M17.8854 16.0001L23.6094 10.2761C24.1308 9.75476 24.1308 8.91209 23.6094 8.39076C23.0881 7.86942 22.2454 7.86942 21.7241 8.39076L16.0001 14.1148L10.2761 8.39076C9.75476 7.86942 8.91209 7.86942 8.39076 8.39076C7.86942 8.91209 7.86942 9.75476 8.39076 10.2761L14.1148 16.0001L8.39076 21.7241C7.86942 22.2454 7.86942 23.0881 8.39076 23.6094C8.65076 23.8694 8.99209 24.0001 9.33342 24.0001C9.67476 24.0001 10.0161 23.8694 10.2761 23.6094L16.0001 17.8854L21.7241 23.6094C21.9841 23.8694 22.3254 24.0001 22.6668 24.0001C23.0081 24.0001 23.3494 23.8694 23.6094 23.6094C24.1308 23.0881 24.1308 22.2454 23.6094 21.7241L17.8854 16.0001Z" fill="white"/>
</mask>
<g mask="url(#mask0)">
<rect width="26" height="26" fill="#212529"/>
</g>
</svg>
