<svg width="20" height="20" viewBox="0 0 20 20" fill="none" xmlns="http://www.w3.org/2000/svg">
<g clip-path="url(#clip0)">
<path fill-rule="evenodd" clip-rule="evenodd" d="M6 8C6.828 8 7.5 7.328 7.5 6.5C7.5 5.672 6.828 5 6 5C5.172 5 4.5 5.672 4.5 6.5C4.5 7.328 5.172 8 6 8M16 17H4.561L11.566 11.155C11.812 10.946 12.258 10.947 12.499 11.154L17 14.994V16C17 16.552 16.552 17 16 17M4 3H16C16.552 3 17 3.448 17 4V12.364L13.797 9.632C12.807 8.79 11.258 8.79 10.277 9.626L3 15.698V4C3 3.448 3.448 3 4 3M16 1H4C2.346 1 1 2.346 1 4V16C1 17.654 2.346 19 4 19H16C17.654 19 19 17.654 19 16V4C19 2.346 17.654 1 16 1" fill="#231F20"/>
<mask id="mask0" mask-type="alpha" maskUnits="userSpaceOnUse" x="1" y="1" width="18" height="18">
<path fill-rule="evenodd" clip-rule="evenodd" d="M6 8C6.828 8 7.5 7.328 7.5 6.5C7.5 5.672 6.828 5 6 5C5.172 5 4.5 5.672 4.5 6.5C4.5 7.328 5.172 8 6 8M16 17H4.561L11.566 11.155C11.812 10.946 12.258 10.947 12.499 11.154L17 14.994V16C17 16.552 16.552 17 16 17M4 3H16C16.552 3 17 3.448 17 4V12.364L13.797 9.632C12.807 8.79 11.258 8.79 10.277 9.626L3 15.698V4C3 3.448 3.448 3 4 3M16 1H4C2.346 1 1 2.346 1 4V16C1 17.654 2.346 19 4 19H16C17.654 19 19 17.654 19 16V4C19 2.346 17.654 1 16 1" fill="white"/>
</mask>
<g mask="url(#mask0)">
<rect x="-2" y="-2" width="24" height="24" fill="#212529"/>
</g>
</g>
<defs>
<clipPath id="clip0">
<rect width="20" height="20" fill="white"/>
</clipPath>
</defs>
</svg>
