<svg width="20" height="20" viewBox="0 0 20 20" fill="none" xmlns="http://www.w3.org/2000/svg">
<path d="M10 12.4998C10.8841 12.4998 11.7319 12.1486 12.357 11.5235C12.9822 10.8984 13.3334 10.0506 13.3334 9.1665V4.99984C13.3334 4.11578 12.9822 3.26794 12.357 2.64281C11.7319 2.01769 10.8841 1.6665 10 1.6665C9.11597 1.6665 8.26812 2.01769 7.643 2.64281C7.01788 3.26794 6.66669 4.11578 6.66669 4.99984V9.1665C6.66669 10.0506 7.01788 10.8984 7.643 11.5235C8.26812 12.1486 9.11597 12.4998 10 12.4998ZM8.33335 4.99984C8.33335 4.55781 8.50895 4.13389 8.82151 3.82133C9.13407 3.50877 9.55799 3.33317 10 3.33317C10.442 3.33317 10.866 3.50877 11.1785 3.82133C11.4911 4.13389 11.6667 4.55781 11.6667 4.99984V9.1665C11.6667 9.60853 11.4911 10.0325 11.1785 10.345C10.866 10.6576 10.442 10.8332 10 10.8332C9.55799 10.8332 9.13407 10.6576 8.82151 10.345C8.50895 10.0325 8.33335 9.60853 8.33335 9.1665V4.99984Z" fill="#212529"/>
<path d="M15.8334 9.16683C15.8334 8.94582 15.7456 8.73385 15.5893 8.57757C15.433 8.42129 15.221 8.3335 15 8.3335C14.779 8.3335 14.567 8.42129 14.4108 8.57757C14.2545 8.73385 14.1667 8.94582 14.1667 9.16683C14.1667 10.2719 13.7277 11.3317 12.9463 12.1131C12.1649 12.8945 11.1051 13.3335 10 13.3335C8.89495 13.3335 7.83514 12.8945 7.05374 12.1131C6.27234 11.3317 5.83335 10.2719 5.83335 9.16683C5.83335 8.94582 5.74556 8.73385 5.58928 8.57757C5.433 8.42129 5.22103 8.3335 5.00002 8.3335C4.77901 8.3335 4.56705 8.42129 4.41076 8.57757C4.25448 8.73385 4.16669 8.94582 4.16669 9.16683C4.16833 10.5684 4.67453 11.9225 5.59267 12.9814C6.51081 14.0403 7.77952 14.7333 9.16669 14.9335V16.6668H7.40835C7.21165 16.6668 7.02301 16.745 6.88392 16.8841C6.74483 17.0231 6.66669 17.2118 6.66669 17.4085V17.5918C6.66669 17.7885 6.74483 17.9772 6.88392 18.1163C7.02301 18.2554 7.21165 18.3335 7.40835 18.3335H12.5917C12.7884 18.3335 12.977 18.2554 13.1161 18.1163C13.2552 17.9772 13.3334 17.7885 13.3334 17.5918V17.4085C13.3334 17.2118 13.2552 17.0231 13.1161 16.8841C12.977 16.745 12.7884 16.6668 12.5917 16.6668H10.8334V14.9335C12.2205 14.7333 13.4892 14.0403 14.4074 12.9814C15.3255 11.9225 15.8317 10.5684 15.8334 9.16683Z" fill="#212529"/>
</svg>
