<svg width="20" height="20" viewBox="0 0 20 20" fill="none" xmlns="http://www.w3.org/2000/svg">
<path fill-rule="evenodd" clip-rule="evenodd" d="M3.33335 10.0001C3.33335 8.46174 3.86252 7.04841 4.74002 5.91924L14.0809 15.2601C12.9517 16.1384 11.5384 16.6667 10 16.6667C6.32419 16.6667 3.33335 13.6759 3.33335 10.0001ZM16.6667 10.0001C16.6667 11.5384 16.1375 12.9517 15.26 14.0809L5.91918 4.74008C7.04835 3.86175 8.46168 3.33341 10 3.33341C13.6758 3.33341 16.6667 6.32425 16.6667 10.0001ZM10 1.66675C5.40502 1.66675 1.66669 5.40508 1.66669 10.0001C1.66669 14.5951 5.40502 18.3334 10 18.3334C14.595 18.3334 18.3334 14.5951 18.3334 10.0001C18.3334 5.40508 14.595 1.66675 10 1.66675Z" fill="#231F20"/>
<mask id="mask0" mask-type="alpha" maskUnits="userSpaceOnUse" x="1" y="1" width="18" height="18">
<path fill-rule="evenodd" clip-rule="evenodd" d="M3.33335 10.0001C3.33335 8.46174 3.86252 7.04841 4.74002 5.91924L14.0809 15.2601C12.9517 16.1384 11.5384 16.6667 10 16.6667C6.32419 16.6667 3.33335 13.6759 3.33335 10.0001ZM16.6667 10.0001C16.6667 11.5384 16.1375 12.9517 15.26 14.0809L5.91918 4.74008C7.04835 3.86175 8.46168 3.33341 10 3.33341C13.6758 3.33341 16.6667 6.32425 16.6667 10.0001ZM10 1.66675C5.40502 1.66675 1.66669 5.40508 1.66669 10.0001C1.66669 14.5951 5.40502 18.3334 10 18.3334C14.595 18.3334 18.3334 14.5951 18.3334 10.0001C18.3334 5.40508 14.595 1.66675 10 1.66675Z" fill="white"/>
</mask>
<g mask="url(#mask0)">
<rect width="20" height="20" fill="#212529"/>
</g>
</svg>
